<?xml version="1.0" standalone="no"?>
<!DOCTYPE svg PUBLIC "-//W3C//DTD SVG 20010904//EN"
 "http://www.w3.org/TR/2001/REC-SVG-20010904/DTD/svg10.dtd">
<svg version="1.0" xmlns="http://www.w3.org/2000/svg"
 width="260.000000pt" height="260.000000pt" viewBox="0 0 260.000000 260.000000"
 preserveAspectRatio="xMidYMid meet">
<metadata>
Created by potrace 1.11, written by Peter Selinger 2001-2013
</metadata>
<g transform="translate(0.000000,260.000000) scale(0.100000,-0.100000)"
fill="#000000" stroke="none">
<path d="M1422 2094 c10 -10 20 -16 22 -13 3 3 -5 11 -17 18 -21 13 -21 12 -5
-5z"/>
<path d="M1475 2086 l20 -19 -24 8 c-13 4 -21 3 -18 -2 3 -5 -3 -9 -13 -9 -10
0 -16 4 -14 8 5 8 -10 12 -35 9 -7 -2 -10 2 -6 8 3 6 1 11 -5 11 -6 0 -10 -7
-8 -16 2 -10 -4 -19 -12 -21 -13 -4 -13 -3 0 6 8 6 13 11 10 12 -47 8 -54 8
-42 0 11 -6 9 -9 -6 -13 -14 -4 -19 -2 -16 7 3 7 -2 15 -10 18 -11 4 -13 1 -9
-11 3 -9 3 -14 -2 -10 -4 4 -15 2 -23 -5 -13 -10 -14 -9 -3 11 7 14 8 22 1 22
-5 0 -10 -4 -10 -9 0 -6 -10 -8 -22 -6 -12 3 -27 -3 -35 -13 -8 -9 -11 -11 -7
-3 9 18 -16 32 -37 21 -9 -5 -20 -6 -24 -2 -5 4 -5 0 -1 -8 5 -9 2 -8 -7 3
-20 24 -30 21 -16 -5 11 -22 11 -22 -17 2 -18 16 -23 18 -14 6 14 -18 13 -19
-5 -12 -16 6 -17 5 -8 -5 14 -15 0 -39 -23 -39 -8 0 -14 -4 -14 -10 0 -5 8 -7
18 -4 14 5 14 4 2 -4 -10 -8 -19 -7 -29 1 -12 10 -13 9 -2 -11 7 -12 17 -20
23 -16 7 4 8 2 4 -5 -6 -9 -11 -9 -22 0 -10 8 -18 9 -25 2 -7 -7 -20 -7 -41 1
-24 8 -32 8 -35 -1 -2 -7 -11 -9 -19 -6 -7 3 -11 9 -8 14 3 5 9 7 14 4 5 -3
11 -1 15 5 4 6 11 7 17 4 7 -4 8 -2 4 5 -6 8 -12 9 -20 2 -7 -6 -15 -8 -19 -5
-3 3 -13 -6 -23 -21 -12 -19 -14 -29 -6 -37 16 -16 -4 -39 -25 -31 -13 5 -15
2 -10 -11 5 -12 3 -15 -6 -9 -22 14 -36 12 -29 -5 5 -14 3 -15 -10 -4 -13 11
-16 10 -14 -5 0 -10 -4 -17 -10 -16 -7 1 -11 -9 -10 -26 2 -25 -1 -28 -26 -26
-24 2 -26 0 -17 -17 8 -15 8 -19 0 -14 -6 4 -14 0 -17 -9 -4 -9 -13 -14 -21
-11 -9 4 -11 2 -7 -6 5 -8 2 -9 -10 -5 -14 6 -15 4 -5 -14 7 -13 7 -19 1 -15
-6 3 -14 2 -17 -4 -5 -8 -11 -8 -20 0 -9 8 -15 8 -20 0 -6 -9 0 -14 16 -12 4
1 5 -14 3 -34 -2 -23 1 -32 8 -28 7 4 8 3 4 -5 -4 -6 -11 -9 -16 -6 -5 3 -12
0 -16 -6 -4 -8 -3 -9 4 -5 7 4 12 1 12 -9 0 -9 -4 -14 -9 -10 -5 3 -13 0 -17
-6 -4 -8 -3 -9 4 -5 7 4 12 2 12 -3 0 -11 -13 -15 -40 -11 -10 1 -9 -3 5 -14
19 -15 19 -16 1 -9 -13 4 -17 3 -12 -5 3 -6 1 -14 -5 -18 -7 -4 -10 -3 -7 2 3
5 -1 16 -10 24 -14 13 -15 12 -9 -3 3 -9 2 -17 -4 -17 -6 0 -3 -7 5 -16 20
-20 21 -30 1 -14 -9 7 -18 10 -22 6 -3 -3 -1 -6 5 -6 6 0 9 -11 6 -26 -3 -14
-1 -23 5 -20 5 3 11 -1 14 -9 4 -9 1 -12 -9 -8 -7 3 -14 0 -14 -6 0 -10 14
-15 34 -12 5 1 4 -5 -4 -13 -10 -13 -10 -19 1 -33 13 -15 12 -15 -8 -3 -16 11
-19 17 -11 27 7 8 7 13 0 13 -21 0 -21 -31 1 -51 16 -15 18 -19 5 -14 -10 4
-18 3 -18 -3 0 -6 8 -13 18 -15 16 -4 16 -5 -1 -6 -10 0 -15 -6 -12 -11 4 -6
11 -7 17 -4 7 4 8 2 4 -4 -4 -6 -13 -9 -21 -5 -8 3 -15 0 -15 -7 0 -6 4 -8 10
-5 5 3 10 1 10 -6 0 -8 5 -7 18 2 15 13 16 12 3 -3 -7 -10 -17 -15 -22 -12 -5
3 -6 -2 -3 -10 3 -9 11 -13 18 -9 6 3 6 1 -1 -8 -16 -16 -17 -33 -1 -23 7 5 8
3 2 -7 -5 -8 -9 -16 -10 -19 -4 -21 -18 -39 -26 -34 -5 3 -4 -3 4 -15 8 -13
16 -17 22 -11 6 6 15 10 21 10 5 0 -3 -9 -20 -20 l-30 -20 25 -1 c23 0 23 -1
5 -9 -11 -5 -16 -9 -11 -9 5 -1 1 -11 -10 -23 -16 -20 -15 -20 9 2 23 20 27
21 21 6 -6 -15 -4 -17 7 -11 12 8 12 6 0 -8 -8 -10 -11 -20 -7 -24 3 -3 6 -1
6 6 0 7 9 3 21 -10 11 -13 18 -19 15 -13 -3 7 1 17 8 23 12 10 13 8 9 -10 -5
-19 -3 -20 18 -15 20 6 21 5 7 -4 -10 -6 -18 -16 -18 -21 0 -6 4 -8 9 -5 5 4
8 -2 6 -11 -1 -10 3 -24 9 -32 7 -10 8 -13 0 -8 -7 4 -11 -6 -12 -28 -2 -38 7
-49 28 -33 12 8 12 9 -2 4 -10 -3 -18 -1 -18 5 0 6 8 9 18 7 10 -2 17 -12 16
-24 -1 -11 5 -21 12 -22 8 -1 20 -3 27 -4 7 -1 13 -9 13 -19 0 -10 -3 -16 -6
-14 -4 2 -7 -2 -7 -9 0 -8 8 -11 19 -8 10 2 18 8 18 14 0 5 13 -5 29 -21 22
-23 28 -36 25 -63 -3 -24 -1 -29 6 -18 8 13 12 11 27 -10 10 -14 18 -28 18
-32 0 -3 2 -9 6 -12 3 -3 5 5 5 19 0 13 -4 21 -10 18 -5 -4 -6 -1 -1 7 6 9 4
11 -5 5 -9 -5 -11 -4 -6 4 6 9 11 9 22 0 8 -6 12 -14 9 -17 -8 -9 17 -32 28
-25 6 3 7 1 3 -5 -3 -6 0 -26 8 -44 8 -18 15 -28 15 -22 1 7 14 10 32 9 23 -2
33 2 39 19 8 20 9 20 10 -4 1 -23 2 -23 10 -5 l9 20 0 -20 c1 -15 3 -17 10 -7
7 11 9 10 14 -3 4 -9 3 -13 -2 -10 -5 3 -12 1 -16 -5 -3 -5 3 -10 14 -10 11 0
26 -9 34 -20 8 -11 17 -17 22 -12 5 4 5 1 1 -6 -4 -7 -11 -10 -16 -7 -4 3 -11
-2 -14 -10 -4 -13 -2 -14 14 -5 19 10 24 7 21 -15 -1 -5 10 3 24 18 14 15 25
23 25 16 0 -8 4 -8 15 1 12 10 16 8 24 -11 l10 -24 2 25 c1 20 2 21 6 6 4 -14
7 -16 13 -6 5 8 16 15 24 16 9 1 14 -2 11 -6 -3 -5 -1 -11 5 -15 6 -4 7 -12 3
-18 -3 -7 3 -3 15 7 25 21 31 36 7 16 -10 -9 -15 -9 -15 -1 0 6 5 11 11 11 5
0 7 6 3 13 -5 8 -2 7 10 -2 9 -8 15 -20 12 -28 -3 -7 -1 -13 4 -13 6 0 10 10
10 23 0 17 2 19 9 7 6 -8 7 -18 5 -22 -9 -15 3 -8 17 9 12 14 12 16 0 8 -10
-5 -12 -4 -7 3 4 8 14 9 24 4 24 -12 41 -9 51 6 7 11 9 10 14 -3 5 -11 3 -14
-6 -9 -8 5 -8 2 2 -9 16 -20 32 -13 24 11 -5 14 -2 13 11 -3 12 -14 19 -16 22
-8 4 9 12 7 27 -7 11 -11 23 -18 26 -15 2 3 -4 12 -15 20 -10 8 -17 15 -14 15
29 7 39 7 37 2 -2 -7 7 -12 18 -12 3 0 1 9 -4 19 -8 14 -7 22 4 31 8 7 12 17
8 24 -3 6 3 3 14 -7 14 -12 23 -15 28 -7 3 6 1 9 -6 8 -6 -2 -14 3 -16 10 -3
8 1 10 14 5 16 -6 17 -5 3 12 -13 17 -13 18 0 10 8 -6 18 -10 22 -10 3 0 10
-4 15 -9 5 -6 2 -6 -7 -1 -8 5 -12 4 -7 0 12 -14 36 -14 31 -1 -3 7 4 12 15
12 14 0 17 -4 10 -12 -7 -8 -6 -15 2 -20 8 -5 9 -3 4 6 -6 10 -4 12 7 7 10 -3
15 0 14 11 0 10 6 16 16 16 10 -1 14 4 11 12 -3 8 -10 14 -16 14 -6 0 3 11 21
23 17 13 28 28 24 32 -4 5 -2 5 5 1 7 -4 9 -14 6 -23 -6 -14 -3 -14 14 2 19
18 39 69 34 88 0 4 8 3 20 -4 17 -9 20 -8 14 2 -6 9 -3 10 11 5 15 -6 17 -5 7
5 -7 7 -13 18 -13 24 0 5 5 3 10 -5 9 -13 11 -13 19 0 5 8 7 19 3 25 -3 5 2 4
11 -4 10 -8 20 -11 24 -7 3 3 1 6 -5 6 -7 0 -12 5 -12 11 0 5 6 7 13 3 9 -6 9
-4 1 7 -9 11 -5 19 19 39 17 14 28 20 24 14 -4 -7 0 -14 8 -18 8 -3 17 0 21 6
4 7 3 8 -4 4 -7 -4 -12 -3 -12 2 0 6 7 13 16 16 9 4 14 9 11 13 -4 3 -2 11 3
18 7 8 5 12 -5 12 -8 0 -12 -4 -9 -9 3 -4 -2 -5 -12 -1 -14 5 -13 8 7 20 13 8
16 12 7 9 -26 -8 -30 8 -8 32 11 12 20 29 21 39 1 13 3 10 9 -7 5 -17 8 -19 9
-7 1 9 8 17 17 17 9 0 12 -5 8 -12 -4 -6 -3 -8 4 -5 5 4 8 16 5 27 -3 12 0 20
6 20 7 0 9 -4 6 -10 -3 -5 -1 -10 5 -10 7 0 9 7 6 16 -3 9 -6 20 -6 25 0 6 -5
7 -12 3 -7 -4 -8 -3 -4 5 4 6 12 9 17 6 5 -4 9 -2 9 4 0 5 -8 15 -17 20 -10 6
-12 11 -5 11 6 0 12 8 12 18 0 14 -2 15 -10 2 -5 -8 -10 -10 -10 -4 0 18 13
24 27 13 10 -9 10 -15 2 -25 -7 -9 -8 -14 -1 -14 19 0 20 28 1 48 -20 22 -26
37 -10 27 5 -3 13 0 17 6 5 8 3 9 -6 4 -9 -5 -10 -2 -5 14 4 13 2 21 -5 21 -6
0 -9 -4 -5 -9 3 -5 1 -12 -4 -15 -17 -11 -5 24 13 37 19 14 12 51 -9 43 -14
-5 -14 19 0 31 4 5 5 1 0 -7 -5 -8 -5 -12 0 -8 4 4 15 2 23 -5 13 -11 14 -9 1
11 -8 12 -17 22 -21 22 -5 0 -8 5 -8 11 0 5 4 8 9 4 5 -3 13 0 17 6 4 8 3 9
-4 5 -7 -4 -12 -2 -12 4 0 6 -5 8 -12 4 -7 -4 -8 -3 -4 5 4 6 12 9 17 6 14
-10 10 5 -6 22 -17 16 -16 34 0 34 5 1 11 -5 13 -13 2 -9 0 -8 -8 2 -8 10 -10
11 -8 2 6 -23 23 -8 22 18 -3 40 -3 42 -16 34 -8 -5 -7 0 2 11 9 11 10 16 3
11 -8 -4 -13 -2 -13 4 0 6 -5 8 -12 4 -7 -4 -8 -3 -4 4 4 6 14 9 24 6 9 -2 5
2 -11 9 -15 7 -24 16 -21 20 4 4 2 8 -4 8 -38 4 -61 19 -55 36 5 12 3 14 -7 8
-9 -5 -11 -4 -6 3 4 7 14 12 22 12 8 0 13 4 9 10 -3 5 -11 8 -18 6 -7 -1 -9
-1 -4 1 4 3 5 9 2 14 -4 5 1 6 9 3 9 -3 16 -2 16 4 0 6 -5 12 -11 14 -6 2 -11
17 -11 32 0 24 -2 26 -10 12 -9 -15 -12 -14 -33 10 -13 15 -21 32 -18 37 3 6
1 7 -5 3 -8 -5 -9 -13 -3 -25 7 -13 6 -18 -3 -18 -8 0 -12 11 -10 29 2 17 0
27 -6 23 -6 -3 -10 4 -10 16 0 17 -3 19 -14 10 -10 -8 -16 -9 -21 -1 -3 6 -11
7 -17 4 -6 -4 -8 -2 -4 4 3 6 1 14 -5 18 -9 5 -6 11 7 21 18 13 17 14 -8 9
-20 -3 -25 -1 -21 10 3 8 0 14 -7 14 -7 0 -10 8 -7 19 4 15 0 19 -16 16 -21
-5 -49 7 -48 18 3 23 -1 28 -21 22 -15 -4 -19 -3 -10 3 10 7 10 11 -2 22 -9 7
-14 16 -11 20 3 5 0 12 -7 16 -7 4 -10 4 -6 0 4 -5 -5 -19 -19 -32 -27 -25
-38 -31 -29 -15 3 5 -1 14 -8 20 -11 9 -16 9 -22 0 -4 -8 -3 -9 4 -5 7 4 12 2
12 -4 0 -7 -6 -10 -12 -7 -7 2 -12 14 -11 26 2 12 -1 20 -5 17 -5 -3 -18 2
-30 10 -17 12 -20 19 -13 33 10 18 5 21 -44 22 -10 0 -24 3 -30 7 -6 4 -2 -1
10 -12z m-305 -6 c0 -5 -8 -10 -17 -10 -15 0 -16 2 -3 10 19 12 20 12 20 0z
m337 -12 c-3 -8 -6 -5 -6 6 -1 11 2 17 5 13 3 -3 4 -12 1 -19z m-274 -5 c-3
-7 -6 -13 -8 -13 -2 0 -5 6 -8 13 -3 8 1 14 8 14 7 0 11 -6 8 -14z m177 13 c0
-2 -8 -10 -17 -17 -16 -13 -17 -12 -4 4 13 16 21 21 21 13z m-520 -116 c0 -5
-2 -10 -4 -10 -3 0 -8 5 -11 10 -3 6 -1 10 4 10 6 0 11 -4 11 -10z m-90 -117
c0 -3 -7 -3 -15 1 -8 3 -15 0 -15 -6 0 -6 -3 -9 -6 -5 -11 10 6 26 21 20 8 -3
15 -7 15 -10z m-110 -103 c0 -5 -4 -10 -10 -10 -5 0 -10 5 -10 10 0 6 5 10 10
10 6 0 10 -4 10 -10z m-80 -174 c0 -3 -4 -8 -10 -11 -5 -3 -10 -1 -10 4 0 6 5
11 10 11 6 0 10 -2 10 -4z m1480 -286 c0 -5 -4 -10 -10 -10 -5 0 -10 5 -10 10
0 6 5 10 10 10 6 0 10 -4 10 -10z m-1550 -114 c0 -2 -7 -7 -16 -10 -8 -3 -12
-2 -9 4 6 10 25 14 25 6z m1510 -106 c0 -5 -5 -10 -11 -10 -5 0 -7 5 -4 10 3
6 8 10 11 10 2 0 4 -4 4 -10z m-1483 -22 c-3 -8 -6 -5 -6 6 -1 11 2 17 5 13 3
-3 4 -12 1 -19z m130 -184 c-3 -3 -12 -4 -19 -1 -8 3 -5 6 6 6 11 1 17 -2 13
-5z m1100 -146 c-3 -8 -6 -5 -6 6 -1 11 2 17 5 13 3 -3 4 -12 1 -19z m-862
-88 c8 7 12 5 12 -3 0 -7 -10 -13 -22 -13 -12 0 -22 6 -22 13 0 9 4 10 10 4 7
-7 15 -7 22 -1z m172 -102 c-3 -8 -6 -5 -6 6 -1 11 2 17 5 13 3 -3 4 -12 1
-19z"/>
<path d="M1545 2061 c-6 -11 13 -26 22 -17 4 3 0 6 -8 6 -11 0 -11 2 1 10 9 6
10 10 3 10 -6 0 -14 -4 -18 -9z"/>
<path d="M1035 2050 c-3 -5 -2 -10 4 -10 5 0 13 5 16 10 3 6 2 10 -4 10 -5 0
-13 -4 -16 -10z"/>
<path d="M950 1999 c0 -10 27 -19 34 -12 12 12 5 22 -14 20 -11 -1 -20 -4 -20
-8z"/>
<path d="M1705 2001 c-6 -11 13 -26 22 -17 4 3 1 6 -6 6 -7 0 -9 5 -6 10 3 6
4 10 1 10 -3 0 -7 -4 -11 -9z"/>
<path d="M837 1943 c-4 -6 0 -13 8 -17 8 -3 17 0 21 6 4 6 3 8 -4 4 -5 -3 -12
-1 -14 6 -3 8 -6 9 -11 1z"/>
<path d="M1847 1828 c9 -10 19 -15 22 -12 3 4 0 9 -7 11 -6 3 -10 8 -8 12 3 4
-1 8 -9 8 -13 0 -12 -4 2 -19z"/>
<path d="M1955 1740 c3 -5 8 -10 11 -10 2 0 4 5 4 10 0 6 -5 10 -11 10 -5 0
-7 -4 -4 -10z"/>
<path d="M586 1658 c3 -5 10 -6 15 -3 13 9 11 12 -6 12 -8 0 -12 -4 -9 -9z"/>
<path d="M2005 1600 c-3 -5 -1 -10 4 -10 6 0 11 5 11 10 0 6 -2 10 -4 10 -3 0
-8 -4 -11 -10z"/>
<path d="M498 1258 c9 -11 10 -18 2 -23 -13 -8 -3 -25 13 -24 8 0 8 2 -1 6 -9
3 -10 9 -2 18 7 9 5 16 -7 26 -16 13 -17 12 -5 -3z"/>
<path d="M1989 983 c-13 -16 -12 -17 4 -4 16 13 21 21 13 21 -2 0 -10 -8 -17
-17z"/>
<path d="M586 938 c3 -5 10 -6 15 -3 13 9 11 12 -6 12 -8 0 -12 -4 -9 -9z"/>
<path d="M1941 866 c-9 -11 -9 -16 0 -22 8 -5 9 -3 4 6 -6 10 -3 12 14 7 18
-4 20 -3 10 9 -14 17 -14 17 -28 0z"/>
<path d="M730 781 c0 -5 7 -12 16 -15 8 -3 13 -10 10 -14 -3 -5 1 -9 8 -9 8 0
12 5 10 11 -6 15 -44 39 -44 27z"/>
<path d="M1896 782 c-3 -5 1 -9 9 -9 8 0 12 4 9 9 -3 4 -7 8 -9 8 -2 0 -6 -4
-9 -8z"/>
<path d="M1825 741 c-3 -5 0 -13 6 -17 7 -4 9 -3 5 4 -3 5 0 13 6 15 9 4 10 6
1 6 -6 1 -14 -3 -18 -8z"/>
<path d="M1741 666 c-9 -10 -8 -15 2 -19 8 -3 13 3 13 14 0 23 0 23 -15 5z"/>
<path d="M860 645 c0 -5 5 -17 10 -25 5 -8 10 -10 10 -5 0 6 -5 17 -10 25 -5
8 -10 11 -10 5z"/>
<path d="M1555 561 c-6 -11 13 -26 22 -17 4 3 1 6 -6 6 -7 0 -9 5 -6 10 3 6 4
10 1 10 -3 0 -7 -4 -11 -9z"/>
<path d="M1032 553 c11 -3 15 -11 12 -21 -5 -14 -4 -14 4 -2 13 18 6 30 -16
29 -16 -1 -16 -2 0 -6z"/>
<path d="M1157 523 c-10 -9 -9 -23 1 -23 5 0 9 7 9 15 0 17 -1 18 -10 8z"/>
<path d="M1220 520 c0 -5 5 -10 11 -10 5 0 7 5 4 10 -3 6 -8 10 -11 10 -2 0
-4 -4 -4 -10z"/>
<path d="M1355 511 c-3 -5 -2 -12 3 -15 5 -3 9 1 9 9 0 17 -3 19 -12 6z"/>
<path d="M1380 516 c0 -2 7 -9 15 -16 9 -7 15 -8 15 -2 0 5 -7 12 -15 16 -8 3
-15 4 -15 2z"/>
</g>
</svg>
